User Type,Username,Date,Text
,yesbos,2010-12-04T12:19Z,"Media info:btmon

    * Duration: 02:34:04.56, start: 0.000000, bitrate: N/A
    * Stream #0.0(tam): Video: h264, yuv420p, 1280x544 [PAR 1:1 DAR 40:17], 23.98 tb(r)
    * Stream #0.1(tam): Audio: ac3, 48000 Hz, 5:1
    * Stream #0.2(eng): Subtitle: dvdsub"
